<?xml version="1.0" encoding="UTF-8" standalone="no"?>
<svg
   xmlns:dc="http://purl.org/dc/elements/1.1/"
   xmlns:cc="http://creativecommons.org/ns#"
   xmlns:rdf="http://www.w3.org/1999/02/22-rdf-syntax-ns#"
   xmlns:svg="http://www.w3.org/2000/svg"
   xmlns="http://www.w3.org/2000/svg"
   xmlns:sodipodi="http://sodipodi.sourceforge.net/DTD/sodipodi-0.dtd"
   xmlns:inkscape="http://www.inkscape.org/namespaces/inkscape"
   width="78.490997"
   height="88.000008"
   viewBox="0 0 78.490997 88.000008"
   version="1.1"
   id="svg39"
   sodipodi:docname="ui_logo.svg"
   inkscape:version="0.92.5 (2060ec1f9f, 2020-04-08)">
  <metadata
     id="metadata43">
    <rdf:RDF>
      <cc:Work
         rdf:about="">
        <dc:format>image/svg+xml</dc:format>
        <dc:type
           rdf:resource="http://purl.org/dc/dcmitype/StillImage" />
        <dc:title></dc:title>
      </cc:Work>
    </rdf:RDF>
  </metadata>
  <sodipodi:namedview
     pagecolor="#ffffff"
     bordercolor="#666666"
     borderopacity="1"
     objecttolerance="10"
     gridtolerance="10"
     guidetolerance="10"
     inkscape:pageopacity="0"
     inkscape:pageshadow="2"
     inkscape:window-width="2488"
     inkscape:window-height="1376"
     id="namedview41"
     showgrid="false"
     fit-margin-top="0"
     fit-margin-left="0"
     fit-margin-right="0"
     fit-margin-bottom="0"
     inkscape:zoom="13.135135"
     inkscape:cx="74"
     inkscape:cy="43.999355"
     inkscape:window-x="72"
     inkscape:window-y="27"
     inkscape:window-maximized="1"
     inkscape:current-layer="svg39" />
  <defs
     id="defs12">
    <style
       id="style10">
            .prefix__cls-1{fill:#070047}.prefix__cls-2{fill:#fff}.prefix__cls-4{fill:#8f9bb2}
        </style>
  </defs>
  <g
     id="prefix__logo"
     transform="translate(0,0.00165265)">
    <g
       id="prefix__Group_4690_2_"
       transform="translate(0,-0.001)">
      <path
         id="prefix__Path_2985_1_"
         d="m 0,62.1 a 7.832,7.832 0 0 0 3.928,6.786 l 31.405,18.071 a 7.866,7.866 0 0 0 7.84,0 L 74.563,68.9 a 7.823,7.823 0 0 0 3.928,-6.784 v -36.2 A 7.828,7.828 0 0 0 74.565,19.134 L 43.175,1.052 a 7.869,7.869 0 0 0 -7.86,0.006 L 3.914,19.217 A 7.827,7.827 0 0 0 0,25.994 Z"
         class="prefix__cls-1"
         transform="translate(0,-0.004)"
         inkscape:connector-curvature="0"
         style="fill:#070047" />
      <path
         id="prefix__Path_2986_2_"
         d="m 55.987,134.68 a 0.976,0.976 0 0 1 -0.008,1.7 l -4.4,2.482 -0.033,-0.02 -6.832,3.948 a 1.966,1.966 0 0 1 -1.966,0 l -8.83,-5.09 A 7.818,7.818 0 0 1 30,130.927 v -29.356 a 7.813,7.813 0 0 1 3.979,-6.8 l 0.443,-0.25 a 0.984,0.984 0 0 1 1.339,0.369 0.964,0.964 0 0 1 0.127,0.482 v 36.187 a 0.979,0.979 0 0 0 0.488,0.845 l 4.909,2.855 a 0.984,0.984 0 0 0 0.981,0 l 0.063,-0.035 a 0.977,0.977 0 0 0 0,-1.7 l -3.994,-2.3 a 0.978,0.978 0 0 1 -0.49,-0.847 V 93.654 a 1.955,1.955 0 0 1 0.995,-1.7 l 3.429,-1.936 a 0.986,0.986 0 0 1 1.339,0.369 0.962,0.962 0 0 1 0.127,0.48 v 36.187 a 0.978,0.978 0 0 0 0.49,0.847 z"
         class="prefix__cls-2"
         transform="translate(-24.126,-72.289)"
         inkscape:connector-curvature="0"
         style="fill:#ffffff" />
      <path
         id="prefix__Path_2987_2_"
         d="M 117.554,80.338 A 0.981,0.981 0 0 1 117.188,79 a 0.969,0.969 0 0 1 0.37,-0.368 l 9.788,-5.733 a 0.981,0.981 0 0 0 0.484,-0.846 V 37.572 a 1.961,1.961 0 0 0 -2.951,-1.694 l -8.823,5.148 -4.891,2.767 A 1.962,1.962 0 0 0 110.17,45.5 v 36.849 a 0.982,0.982 0 0 0 0.49,0.85 l 12.246,7.086 a 1.965,1.965 0 0 0 1.991,-0.016 l 3.46,-2.076 a 0.983,0.983 0 0 0 -0.018,-1.694 z m -1.022,-32.738 3.924,-2.356 a 0.98,0.98 0 0 1 1.484,0.842 v 22.619 a 0.982,0.982 0 0 1 -0.5,0.854 l -3.924,2.224 a 0.984,0.984 0 0 1 -1.339,-0.37 0.97,0.97 0 0 1 -0.127,-0.484 V 48.447 a 1,1 0 0 1 0.482,-0.847 z"
         class="prefix__cls-2"
         transform="translate(-88.598,-28.638)"
         inkscape:connector-curvature="0"
         style="fill:#ffffff" />
      <path
         id="prefix__Path_2988_2_"
         d="M 133.819,43.492 V 77.9 a 0.979,0.979 0 0 1 -0.49,0.848 l -7.858,4.545 a 0.978,0.978 0 0 0 0,1.693 l 10.8,6.235 a 0.977,0.977 0 0 1 0,1.693 l -20.607,11.9 a 0.978,0.978 0 0 0 0,1.7 l 12.279,7.01 a 7.87,7.87 0 0 0 7.8,0 l 26.5,-15.161 A 5.871,5.871 0 0 0 165.2,93.269 V 62.723 a 7.825,7.825 0 0 0 -3.92,-6.778 L 136.762,41.8 a 1.959,1.959 0 0 0 -2.943,1.7 z M 157.856,85.636 140.684,75.7 a 1.957,1.957 0 0 1 -0.977,-1.693 V 60.981 a 0.983,0.983 0 0 1 1.472,-0.848 l 14.239,8.237 a 7.826,7.826 0 0 1 3.91,6.772 v 9.647 a 0.979,0.979 0 0 1 -0.979,0.98 0.968,0.968 0 0 1 -0.493,-0.133 z"
         transform="translate(-92.625,-33.401)"
         style="fill:#627ef7"
         inkscape:connector-curvature="0" />
      <path
         id="prefix__Path_2989_2_"
         d="m 60.346,291.555 -4.4,2.491 -0.033,-0.02 -6.832,3.963 a 1.963,1.963 0 0 1 -1.968,0 l -8.835,-5.111 a 7.826,7.826 0 0 1 -2.853,-2.851 l 4.938,-2.851 a 1,1 0 0 0 0.37,0.384 l 4.909,2.865 a 0.981,0.981 0 0 0 0.981,0 l 0.063,-0.035 a 0.982,0.982 0 0 0 0,-1.7 L 42.7,286.384 a 0.981,0.981 0 0 1 -0.352,-0.352 l 5.86,-3.382 a 0.99,0.99 0 0 0 0.378,0.4 l 11.764,6.8 a 0.981,0.981 0 0 1 -0.006,1.7 z"
         class="prefix__cls-4"
         transform="translate(-28.493,-227.445)"
         inkscape:connector-curvature="0"
         style="fill:#8f9bb2" />
      <path
         id="prefix__Path_2991_2_"
         d="m 164.463,248.2 a 5.858,5.858 0 0 1 -2.193,2.207 l -26.5,15.2 a 7.854,7.854 0 0 1 -7.8,0 l -12.279,-7.026 a 0.983,0.983 0 0 1 0,-1.7 l 16.187,-9.375 4.419,-2.559 a 0.98,0.98 0 0 0 0,-1.7 l -4.419,-2.557 -6.392,-3.69 a 0.98,0.98 0 0 1 0,-1.7 l 6.385,-3.7 1.472,-0.854 a 0.968,0.968 0 0 0 0.333,-0.321 z"
         transform="translate(-92.637,-185.485)"
         style="fill:#3b4c95"
         inkscape:connector-curvature="0" />
      <path
         id="prefix__Path_2992_2_"
         d="m 128.9,265.267 -0.525,0.313 -2.933,1.762 a 1.965,1.965 0 0 1 -1.991,0.016 l -12.244,-7.082 a 1.021,1.021 0 0 1 -0.206,-0.161 0.928,0.928 0 0 1 -0.151,-0.2 v -0.006 l 2.692,-1.555 4.445,-2.567 a 0.762,0.762 0 0 0 -0.094,0.084 0.6,0.6 0 0 0 -0.08,0.092 0.035,0.035 0 0 0 -0.012,0.018 0.479,0.479 0 0 0 -0.055,0.084 0.316,0.316 0 0 0 -0.02,0.035 c -0.01,0.02 -0.02,0.039 -0.027,0.059 a 0.369,0.369 0 0 0 -0.023,0.059 0.378,0.378 0 0 0 -0.022,0.067 0.08,0.08 0 0 0 -0.01,0.035 0.729,0.729 0 0 0 -0.018,0.09 0.974,0.974 0 0 0 0.482,1 l 10.274,5.872 0.507,0.288 a 0.979,0.979 0 0 1 0.366,1.335 1,1 0 0 1 -0.355,0.362 z"
         class="prefix__cls-4"
         transform="translate(-89.145,-205.825)"
         inkscape:connector-curvature="0"
         style="fill:#8f9bb2" />
    </g>
    <g
       id="prefix__Group_4695"
       data-name="Group 4695"
       transform="translate(72.538,19.231)">
      <g
         id="prefix__Group_4694"
         data-name="Group 4694">
        <g
           id="prefix__Group_4691"
           data-name="Group 4691" />
        <g
           id="prefix__Group_4692"
           data-name="Group 4692"
           transform="translate(22.447)" />
        <g
           id="prefix__Group_4693"
           data-name="Group 4693"
           transform="translate(44.421)" />
      </g>
    </g>
    <g
       id="prefix__Group_4697"
       data-name="Group 4697"
       transform="translate(78.412,25.105)">
      <g
         id="prefix__Group_4696"
         data-name="Group 4696" />
    </g>
  </g>
</svg>
